In.Time.2011.BRRip.XviD-RLF
~~~~~~~~~~~~~~~~~~~~~~~~~~~


GENERAL:

Complete name            : rlf-time.avi
Format                   : AVI
Format/Info              : Audio Video Interleave
File size                : 695 MiB
Duration                 : 1h 49mn
Overall bit rate         : 889 Kbps
Language                 : English
Subs                     : Polish, English, Spanish
Encoder                  : Ralf

Video:

Format                   : MPEG-4 Visual
Format profile           : Advanced Simple@L5
Format settings, BVOP    : 2
Format settings, QPel    : No
Format settings, GMC     : No warppoints
Format settings, Matrix  : H.263
Muxing mode              : Packed bitstream
Codec ID                 : XVID
Duration                 : 1h 49mn
Bit rate                 : 765 Kbps
Width                    : 688 pixels
Height                   : 288 pixels
Display aspect ratio     : 2.35:1
Frame rate               : 23.976 fps
Color space              : YUV
Chroma subsampling       : 4:2:0
Bit depth                : 8 bits
Scan type                : Progressive
Bits/(Pixel*Frame)       : 0.161
Stream size              : 598 MiB (86%)
Stream size              : Xvid 63

Audio:

Format                   : MPEG Audio
Format profile           : Layer 3
Codec ID/Hint            : MP3
Duration                 : 1h 49mn
Bit rate mode            : Constant
Bit rate                 : 112 Kbps
Channel(s)               : 2 channels
Sampling rate            : 48.0 KHz
Stream size              : 87.5 MiB (13%)
Alignment                : Split accross interleaves
Interleave, duration     : 24 ms (0.58 video frame)

MOVIE INFO:

In a future where people stop aging at 25, but are engineered to
live only one more year, having the means to buy your way out of
the situation is a shot at immortal youth. Here, Will Salas finds
himself accused of murder and on the run with a hostage a connection
that becomes an important part of the way against the system.
 
http://www.imdb.com/title/tt1637688/ 
http://www.filmweb.pl/film/Wyťcig+z+czasem-2011-587175

SOURCE:

AMIABLE's 720p.BluRay.x264 (THX)

SCREENS:
 
http://www.postimg.com/59000/photo-58952.jpg 
http://www.postimg.com/59000/photo-58953.jpg 
http://www.postimg.com/59000/photo-58954.jpg 
http://www.postimg.com/59000/photo-58955.jpg